<svg preserveAspectRatio="none" width="100%" height="100%" overflow="visible" style="display: block;" viewBox="0 0 366 44" fill="none" xmlns="http://www.w3.org/2000/svg">
<g id="Vector">
<path d="M17.7283 0L28.7532 29.1153H28.8657L34.6608 0H42.8431L34.2616 40.922H25.3399L14.2051 12.2066H14.0926L8.29748 40.922H0L8.52253 0H17.7283Z" fill="var(--fill-0, white)"/>
<path d="M67.1113 38.0251C66.5191 36.8495 66.0798 35.5389 65.7904 34.0985C65.5252 34.4958 65.209 34.8606 64.8447 35.1903C63.5238 36.3793 61.9029 36.9738 59.9846 36.9738C58.7441 36.9738 57.6751 36.7522 56.7749 36.3091C55.8747 35.8659 55.1245 35.2713 54.5244 34.5255C53.9242 33.7796 53.4634 32.8906 53.1446 31.8637C52.8231 30.8341 52.6436 29.7558 52.6061 28.6262H44.5069C44.4667 31.0881 44.8176 33.2662 45.5571 35.1632C46.2966 37.0603 47.3468 38.6628 48.7078 39.9735C50.0662 41.2841 51.7166 42.284 53.6563 42.9704C55.5961 43.6541 57.7475 44 60.1078 44C62.1467 44 64.1079 43.6973 65.986 43.092C67.2693 42.6785 68.4535 42.1354 69.5306 41.4571C68.5768 40.4815 67.773 39.3384 67.1139 38.0305L67.1113 38.0251Z" fill="#F33D5B"/>
<path d="M97.9729 30.1368C97.9729 32.3555 97.5416 34.3309 96.6816 36.0658C95.8751 37.69 94.8195 39.0655 93.5067 40.1924C93.4183 40.2707 93.3245 40.3464 93.2334 40.4221C91.792 41.5922 90.1336 42.4786 88.2528 43.0839C86.372 43.6892 84.4135 43.9919 82.372 43.9919C80.0116 43.9919 77.8602 43.6487 75.9231 42.9623C74.0986 42.3164 72.534 41.3976 71.2238 40.2005C71.1381 40.1248 71.055 40.0464 70.9747 39.9654C69.6163 38.6547 68.5634 37.0522 67.8239 35.1551C67.3819 34.0282 67.0818 32.8014 66.9157 31.4718C66.8889 31.2989 66.8701 31.1475 66.8567 31.0313C66.8192 30.6881 66.8165 30.4963 66.8165 30.4287C66.8165 30.3719 66.8165 30.3314 66.8165 30.3125C66.8165 29.9531 66.8005 29.6099 66.7683 29.2883C66.6612 28.1668 66.3664 27.2777 65.8842 26.6211C65.2653 25.7725 64.4749 25.1591 63.5158 24.7753C62.5539 24.3916 61.5064 24.17 60.365 24.1105C59.2264 24.0511 58.1359 24.0214 57.0964 24.0214V17.9681C58.0154 18.0491 58.996 18.0491 60.0355 17.9681C61.075 17.887 62.0449 17.6573 62.9451 17.2736C63.8453 16.8898 64.5848 16.3358 65.1635 15.6089C65.7422 14.8847 66.0342 13.9145 66.0342 12.7038C66.0342 10.8879 65.4341 9.49613 64.2338 8.52868C63.0335 7.56123 61.6537 7.07751 60.0944 7.07751C57.935 7.07751 56.3034 7.79364 55.2049 9.22589C54.1037 10.6581 53.5759 12.4633 53.6134 14.6414H45.5142C45.5946 12.4633 45.9858 10.4771 46.685 8.68001C47.3843 6.88564 48.3649 5.34259 49.6241 4.05085C50.886 2.75912 52.3944 1.76195 54.1547 1.05392C55.9229 0.354011 57.8814 0 60.0409 0C61.7207 0 63.4006 0.25132 65.0804 0.756664C66.7603 1.26201 68.2687 2.01867 69.6109 3.02665C70.0825 3.38337 70.5246 3.7671 70.9371 4.18057C71.69 4.93453 72.3384 5.78037 72.8822 6.71809C73.3538 7.53421 73.694 8.42059 73.9003 9.37723C74.0611 10.1231 74.1415 10.9122 74.1415 11.7418C74.1415 13.7983 73.6512 15.6143 72.6706 17.1871C71.69 18.7599 70.2191 19.83 68.2606 20.3948V20.5164C70.5808 21.0407 72.4 22.1702 73.7208 23.9052C74.0611 24.3538 74.3585 24.824 74.6103 25.3185C75.5079 27.0723 75.6257 28.8613 75.7008 30.1395C75.7624 31.2097 75.6793 31.4394 75.8454 32.215C75.9606 32.7581 76.1562 33.6391 76.7966 34.5255C77.5521 35.5767 78.5059 36.0442 79.0444 36.3091C79.9446 36.7549 81.0163 36.9765 82.2541 36.9765C84.1295 36.9765 85.7183 36.409 87.0204 35.274C87.0525 35.247 87.082 35.2173 87.1142 35.1903C88.435 34.0012 89.0941 32.3771 89.0941 30.3179C89.0941 28.7046 88.7833 27.475 88.1644 26.6265C87.5455 25.7806 86.7551 25.1645 85.796 24.7807C84.8368 24.397 83.7866 24.1754 82.6452 24.116C81.5039 24.0565 80.4135 24.0268 79.374 24.0268V17.9762C80.2929 18.0572 81.2735 18.0572 82.313 17.9762C82.8783 17.9329 83.4249 17.8438 83.95 17.7086C84.3894 17.5978 84.8127 17.4546 85.2226 17.279C86.1229 16.8952 86.8623 16.3412 87.441 15.6143C88.0224 14.8874 88.3118 13.9199 88.3118 12.7092C88.3118 10.8933 87.7116 9.50153 86.514 8.53409C85.3137 7.56664 83.9339 7.08291 82.3746 7.08291C80.7135 7.08291 79.3632 7.50719 78.3291 8.35573L73.0457 3.02395C73.0859 2.99152 73.1287 2.9591 73.1689 2.92667C74.1388 2.1673 75.2292 1.54576 76.4349 1.06203C78.1951 0.354011 80.1536 0 82.313 0C83.9929 0 85.6727 0.25132 87.3526 0.756664C89.0325 1.26201 90.5409 2.01867 91.8831 3.02665C93.2227 4.03464 94.3132 5.26422 95.1544 6.71809C95.9957 8.17197 96.4137 9.84474 96.4137 11.7418C96.4137 13.7983 95.9234 15.6143 94.9428 17.1871C93.9622 18.7599 92.494 19.83 90.5328 20.3948V20.5164C92.853 21.0407 94.6722 22.1702 95.993 23.9052C97.3139 25.6401 97.9729 27.7182 97.9729 30.1395V30.1368Z" fill="#F33D5B"/>
<path d="M135.6 6.31814L143.23 26.4724H143.308L147.318 6.31814H152.982L147.042 34.6444H140.867L133.159 14.7685H133.081L129.07 34.6444H123.329L129.228 6.31814H135.6Z" fill="var(--fill-0, white)"/>
<path d="M155.029 14.709C155.659 12.8984 156.564 11.3175 157.743 9.96904C158.922 8.62056 160.371 7.56394 162.089 6.79646C163.806 6.02899 165.741 5.64525 167.889 5.64525C170.038 5.64525 172.005 6.02899 173.711 6.79646C175.415 7.56394 176.859 8.62056 178.038 9.96904C179.217 11.3175 180.123 12.8984 180.752 14.709C181.382 16.5196 181.695 18.4842 181.695 20.6002C181.695 22.7161 181.382 24.5862 180.752 26.3724C180.123 28.1587 179.217 29.7126 178.038 31.034C176.859 32.3555 175.415 33.3932 173.711 34.1472C172.007 34.9011 170.068 35.2767 167.889 35.2767C165.711 35.2767 163.806 34.9011 162.089 34.1472C160.371 33.3932 158.922 32.3555 157.743 31.034C156.564 29.7126 155.659 28.1587 155.029 26.3724C154.4 24.5862 154.086 22.6621 154.086 20.6002C154.086 18.5383 154.4 16.5196 155.029 14.709ZM160.674 24.07C160.95 25.1942 161.39 26.2049 161.992 27.1048C162.595 28.0047 163.383 28.7262 164.353 29.2667C165.323 29.8099 166.502 30.0801 167.892 30.0801C169.283 30.0801 170.461 29.8099 171.431 29.2667C172.401 28.7262 173.189 28.0047 173.792 27.1048C174.394 26.2049 174.834 25.1942 175.11 24.07C175.386 22.9458 175.522 21.7892 175.522 20.5975C175.522 19.4057 175.386 18.1518 175.11 16.9871C174.834 15.8224 174.394 14.7847 173.792 13.874C173.189 12.9606 172.401 12.2336 171.431 11.6932C170.461 11.1527 169.28 10.8797 167.892 10.8797C166.504 10.8797 165.323 11.15 164.353 11.6932C163.383 12.2363 162.595 12.9633 161.992 13.874C161.39 14.7874 160.95 15.8251 160.674 16.9871C160.398 18.1518 160.262 19.3544 160.262 20.5975C160.262 21.8406 160.398 22.9458 160.674 24.07Z" fill="var(--fill-0, white)"/>
<path d="M183.702 11.5553V6.31814H206.711V11.5553H198.293V34.6444H192.117V11.5553H183.699H183.702Z" fill="var(--fill-0, white)"/>
<path d="M216.112 6.31814V34.6444H209.937V6.31814H216.112Z" fill="var(--fill-0, white)"/>
<path d="M239.553 13.8767C239.185 13.2822 238.727 12.7606 238.175 12.3093C237.624 11.8607 237.002 11.5094 236.308 11.2581C235.614 11.0068 234.885 10.8824 234.124 10.8824C232.734 10.8824 231.555 11.1527 230.585 11.6959C229.615 12.239 228.828 12.966 228.225 13.8767C227.622 14.7901 227.183 15.8278 226.907 16.9898C226.631 18.1545 226.494 19.3571 226.494 20.6002C226.494 21.8433 226.631 22.9485 226.907 24.0727C227.183 25.1969 227.622 26.2076 228.225 27.1075C228.828 28.0074 229.615 28.7289 230.585 29.2694C231.555 29.8126 232.734 30.0828 234.124 30.0828C236.013 30.0828 237.487 29.5018 238.551 28.3371C239.611 27.1723 240.263 25.6401 240.498 23.7349H246.476C246.318 25.5077 245.91 27.1075 245.257 28.5343C244.6 29.9639 243.735 31.18 242.66 32.1852C241.586 33.1905 240.327 33.958 238.885 34.485C237.444 35.0146 235.858 35.2794 234.127 35.2794C231.976 35.2794 230.044 34.9038 228.327 34.1499C226.609 33.3959 225.16 32.3582 223.981 31.0367C222.802 29.7153 221.897 28.1614 221.267 26.3751C220.637 24.5889 220.324 22.6648 220.324 20.6029C220.324 18.541 220.637 16.5223 221.267 14.7117C221.897 12.9011 222.802 11.3202 223.981 9.97175C225.16 8.62326 226.609 7.56664 228.327 6.79916C230.044 6.03169 231.978 5.64795 234.127 5.64795C235.673 5.64795 237.136 5.87225 238.513 6.32355C239.89 6.77484 241.123 7.42882 242.21 8.28817C243.298 9.14752 244.196 10.2123 244.906 11.4824C245.616 12.7525 246.058 14.2064 246.243 15.8467H240.265C240.161 15.1333 239.925 14.4793 239.558 13.8821L239.553 13.8767Z" fill="var(--fill-0, white)"/>
<path d="M256.857 6.31814V34.6444H250.682V6.31814H256.857Z" fill="var(--fill-0, white)"/>
<path d="M276.287 6.31814L286.79 34.6444H280.378L278.254 28.3371H267.751L265.549 34.6444H259.333L269.953 6.31814H276.287ZM276.643 23.6944L273.104 13.3011H273.026L269.369 23.6944H276.646H276.643Z" fill="var(--fill-0, white)"/>
<path d="M293.948 27.6615C294.289 28.3235 294.741 28.8586 295.304 29.2694C295.867 29.6801 296.528 29.9828 297.289 30.1828C298.05 30.3801 298.835 30.48 299.65 30.48C300.202 30.48 300.791 30.4341 301.421 30.3422C302.05 30.2503 302.64 30.072 303.192 29.8071C303.741 29.5423 304.202 29.1802 304.569 28.7154C304.936 28.2533 305.121 27.6642 305.121 26.9507C305.121 26.1833 304.877 25.5617 304.392 25.0861C303.907 24.6105 303.272 24.2132 302.484 23.8971C301.697 23.5809 300.807 23.3025 299.81 23.0647C298.814 22.8269 297.804 22.5621 296.783 22.2702C295.733 22.0054 294.712 21.6811 293.715 21.2974C292.719 20.9136 291.826 20.4191 291.041 19.8111C290.254 19.203 289.619 18.4437 289.134 17.5303C288.649 16.6169 288.405 15.5143 288.405 14.2172C288.405 12.7633 288.713 11.4986 289.329 10.4284C289.946 9.35831 290.752 8.46382 291.749 7.7504C292.745 7.03697 293.873 6.50731 295.133 6.16411C296.392 5.82091 297.648 5.64795 298.908 5.64795C300.376 5.64795 301.785 5.8128 303.135 6.14249C304.486 6.47488 305.686 7.00995 306.733 7.7504C307.781 8.49085 308.614 9.43668 309.23 10.5879C309.847 11.7391 310.155 13.1335 310.155 14.7739H304.177C304.124 13.928 303.947 13.2254 303.647 12.6714C303.344 12.1147 302.945 11.6796 302.447 11.3635C301.948 11.0473 301.378 10.823 300.735 10.6879C300.092 10.5555 299.39 10.4906 298.632 10.4906C298.133 10.4906 297.635 10.5447 297.137 10.65C296.638 10.7554 296.185 10.9419 295.781 11.2067C295.374 11.4716 295.039 11.8013 294.779 12.1985C294.516 12.5957 294.385 13.0984 294.385 13.7064C294.385 14.2631 294.49 14.7117 294.698 15.0549C294.907 15.3981 295.32 15.717 295.936 16.0061C296.552 16.298 297.404 16.5872 298.492 16.879C299.58 17.1709 301.003 17.5411 302.76 17.9897C303.285 18.0951 304.011 18.2869 304.944 18.5653C305.873 18.8436 306.798 19.2868 307.717 19.8949C308.633 20.5029 309.429 21.3163 310.096 22.3351C310.766 23.3539 311.098 24.6564 311.098 26.2427C311.098 27.5399 310.849 28.7424 310.35 29.8531C309.852 30.9638 309.113 31.9231 308.129 32.7284C307.146 33.5364 305.927 34.1634 304.472 34.612C303.017 35.0606 301.332 35.2876 299.419 35.2876C297.871 35.2876 296.37 35.0957 294.915 34.7119C293.461 34.3282 292.175 33.7256 291.06 32.9068C289.946 32.0879 289.061 31.0421 288.405 29.772C287.749 28.5019 287.435 26.994 287.462 25.2482H293.439C293.439 26.1995 293.608 27.0075 293.951 27.6696L293.948 27.6615Z" fill="var(--fill-0, white)"/>
<path d="M333.868 18.1005C334.549 18.0491 335.187 17.8951 335.776 17.6438C336.365 17.3925 336.85 17.0276 337.231 16.552C337.611 16.0764 337.801 15.4413 337.801 14.6468C337.801 13.4578 337.408 12.5444 336.623 11.9093C335.835 11.2743 334.932 10.9581 333.909 10.9581C332.491 10.9581 331.425 11.4283 330.704 12.366C329.984 13.3065 329.635 14.4874 329.662 15.917H324.352C324.405 14.4874 324.66 13.1876 325.118 12.0093C325.576 10.8338 326.219 9.82041 327.044 8.97457C327.87 8.12873 328.861 7.47476 330.013 7.00995C331.168 6.54784 332.451 6.31544 333.868 6.31544C334.97 6.31544 336.071 6.48028 337.172 6.81268C338.273 7.14237 339.262 7.6396 340.14 8.29898C341.019 8.96106 341.735 9.76637 342.284 10.7203C342.836 11.6715 343.109 12.7714 343.109 14.0118C343.109 15.3603 342.787 16.552 342.144 17.5816C341.501 18.6139 340.537 19.3138 339.254 19.6841V19.7624C340.773 20.1056 341.968 20.8461 342.833 21.9838C343.698 23.1215 344.13 24.4835 344.13 26.0698C344.13 27.5236 343.848 28.8208 343.283 29.9585C342.718 31.0962 341.965 32.0474 341.022 32.8149C340.079 33.5824 338.988 34.1634 337.759 34.5606C336.526 34.9579 335.24 35.1551 333.903 35.1551C332.355 35.1551 330.945 34.9308 329.675 34.4795C328.403 34.031 327.32 33.377 326.431 32.5149C325.539 31.6556 324.85 30.6043 324.365 29.3613C323.88 28.1182 323.65 26.6913 323.677 25.078H328.987C329.014 25.8184 329.132 26.5265 329.341 27.1994C329.55 27.875 329.852 28.456 330.246 28.9451C330.64 29.4342 331.13 29.8234 331.722 30.1152C332.312 30.4071 333.014 30.5503 333.826 30.5503C335.085 30.5503 336.146 30.1612 337.011 29.3802C337.876 28.5992 338.308 27.5345 338.308 26.186C338.308 25.1293 338.104 24.3213 337.697 23.7646C337.29 23.208 336.773 22.8053 336.143 22.554C335.513 22.3027 334.825 22.1567 334.077 22.1189C333.33 22.0784 332.615 22.0595 331.934 22.0595V18.0924C332.537 18.1464 333.18 18.1464 333.86 18.0924L333.868 18.1005Z" fill="var(--fill-0, white)"/>
<path d="M355.739 18.1005C356.419 18.0491 357.057 17.8951 357.646 17.6438C358.236 17.3925 358.721 17.0276 359.101 16.552C359.482 16.0764 359.672 15.4413 359.672 14.6468C359.672 13.4578 359.278 12.5444 358.493 11.9093C357.705 11.2743 356.802 10.9581 355.779 10.9581C354.362 10.9581 353.295 11.4283 352.575 12.366C351.854 13.3065 351.506 14.4874 351.532 15.917H346.222C346.276 14.4874 346.53 13.1876 346.988 12.0093C347.447 10.8338 348.09 9.82041 348.915 8.97457C349.74 8.12873 350.731 7.47476 351.883 7.00995C353.038 6.54784 354.321 6.31544 355.739 6.31544C356.84 6.31544 357.941 6.48028 359.042 6.81268C360.143 7.14237 361.132 7.6396 362.011 8.29898C362.889 8.96106 363.605 9.76637 364.154 10.7203C364.706 11.6715 364.979 12.7714 364.979 14.0118C364.979 15.3603 364.658 16.552 364.015 17.5816C363.372 18.6139 362.407 19.3138 361.124 19.6841V19.7624C362.643 20.1056 363.838 20.8461 364.703 21.9838C365.569 23.1215 366 24.4835 366 26.0698C366 27.5236 365.719 28.8208 365.153 29.9585C364.588 31.0962 363.835 32.0474 362.892 32.8149C361.949 33.5824 360.859 34.1634 359.629 34.5606C358.396 34.9579 357.11 35.1551 355.774 35.1551C354.225 35.1551 352.816 34.9308 351.546 34.4795C350.273 34.031 349.191 33.377 348.301 32.5149C347.409 31.6556 346.721 30.6043 346.236 29.3613C345.751 28.1182 345.52 26.6913 345.547 25.078H350.857C350.884 25.8184 351.002 26.5265 351.211 27.1994C351.42 27.875 351.723 28.456 352.116 28.9451C352.51 29.4342 353.001 29.8234 353.593 30.1152C354.182 30.4071 354.884 30.5503 355.696 30.5503C356.955 30.5503 358.016 30.1612 358.881 29.3802C359.747 28.5992 360.178 27.5345 360.178 26.186C360.178 25.1293 359.974 24.3213 359.567 23.7646C359.16 23.208 358.643 22.8053 358.013 22.554C357.384 22.3027 356.695 22.1567 355.948 22.1189C355.2 22.0784 354.485 22.0595 353.804 22.0595V18.0924C354.407 18.1464 355.05 18.1464 355.731 18.0924L355.739 18.1005Z" fill="var(--fill-0, white)"/>
</g>
</svg>
